<?xml version="1.0" encoding="UTF-8"?> <!-- Generator: Adobe Illustrator 26.0.2, SVG Export Plug-In . SVG Version: 6.00 Build 0) --> <svg xmlns="http://www.w3.org/2000/svg" xmlns:xlink="http://www.w3.org/1999/xlink" version="1.1" id="Layer_1" x="0px" y="0px" viewBox="0 0 281 124" style="enable-background:new 0 0 281 124;" xml:space="preserve"> <style type="text/css"> .st0{fill:#F15F22;} .st1{fill:#FFFFFF;} </style> <path class="st0" d="M82.7,42.8L54.5,14.1C49.3,8.3,41.8,5,34,5C18.7,5,6.2,17.5,6.2,32.8c0,7.3,3.2,14.7,8.9,20.4l10.6,10.7l0,0 l10.7,10.9l0,0l6,6.1l0.4,0.4c1.8,1.6,4.8,5.1,4.8,10c0,7-5.7,12.7-12.7,12.7s-12.7-5.7-12.7-12.7c0-5.2,3.2-9.9,8.1-11.8 c0.7-0.2,1.5-0.5,2.3-0.7L20.3,66.3C11.7,71.4,6.1,80.9,6.1,91.2C6.1,107.1,19,120,34.9,120s28.8-12.9,28.8-28.8 c0-8.2-3.5-15.9-10-21.8L26.6,41.8l0,0c-1.3-1.3-4.2-4.7-4.2-9c0-6.4,5.2-11.6,11.6-11.6c3.3,0,6.4,1.4,8.6,3.8l0.1,0.1l28.5,29 l0.1,0.1c2.2,2.2,3.4,5.1,3.4,8.2c0,4.2-2.3,8-5.7,10c3,4.5,5.2,9.6,5.3,15.4c9.9-4.4,16.6-14.3,16.6-25.4C90.9,55,88,48,82.7,42.8z "></path> <g> <path class="st1" d="M134.2,59.6c0,5.7-3.8,8.4-8.2,8.4h-12.2V51.2H126C130.4,51.2,134.2,53.9,134.2,59.6z M129.9,59.6 c0-4.1-2.2-4.8-5.5-4.8h-6.2v9.6h6.2C127.7,64.4,129.9,63.7,129.9,59.6z"></path> <path class="st1" d="M126,68.3h-12.2c-0.2,0-0.3-0.1-0.3-0.3V51.2c0-0.2,0.1-0.3,0.3-0.3H126c3.9,0,8.5,2.3,8.5,8.7 S129.9,68.3,126,68.3z M114.2,67.7H126c5.8,0,7.9-4.4,7.9-8.1s-2.1-8.1-7.9-8.1h-11.9v16.2H114.2z M124.4,64.7h-6.2 c-0.2,0-0.3-0.1-0.3-0.3v-9.6c0-0.2,0.1-0.3,0.3-0.3h6.2c3.5,0,5.8,0.9,5.8,5.1C130.2,63.8,127.9,64.7,124.4,64.7z M118.5,64.1h5.9 c3.3,0,5.2-0.7,5.2-4.5s-1.9-4.5-5.2-4.5h-5.9C118.5,55.1,118.5,64.1,118.5,64.1z"></path> </g> <g> <path class="st1" d="M161.9,64.5h-10.1l-1.8,3.6h-4.8l8.7-16.8h5.8l8.7,16.8h-4.8L161.9,64.5z M160.3,61.2l-3.4-6.8l-3.4,6.8H160.3 z"></path> <path class="st1" d="M168.5,68.3h-4.8c-0.1,0-0.2-0.1-0.3-0.2l-1.7-3.4H152l-1.7,3.4c-0.1,0.1-0.2,0.2-0.3,0.2h-4.8 c-0.1,0-0.2-0.1-0.3-0.1c-0.1-0.1-0.1-0.2,0-0.3l8.7-16.8c0.1-0.1,0.2-0.2,0.3-0.2h5.8c0.1,0,0.2,0.1,0.3,0.2l8.7,16.8 c0,0.1,0,0.2,0,0.3C168.7,68.3,168.6,68.3,168.5,68.3z M163.9,67.7h4.1l-8.4-16.2h-5.5l-8.4,16.2h4.1l1.7-3.4 c0.1-0.1,0.2-0.2,0.3-0.2h10.1c0.1,0,0.2,0.1,0.3,0.2L163.9,67.7z M160.3,61.5h-6.8c-0.1,0-0.2-0.1-0.3-0.1c-0.1-0.1-0.1-0.2,0-0.3 l3.4-6.8c0.1-0.1,0.2-0.2,0.3-0.2l0,0c0.1,0,0.2,0.1,0.3,0.2l3.4,6.8c0,0.1,0,0.2,0,0.3S160.4,61.5,160.3,61.5z M154,60.9h5.9 l-2.9-5.8L154,60.9z"></path> </g> <g> <path class="st1" d="M211.8,51.2L205.2,68h-6l-4.9-12.7l-5,12.7h-6l-6.6-16.8h4.7l5,13.2l5.3-13.2h5.3l5.3,13.2l4.9-13.2H211.8z"></path> <path class="st1" d="M205.2,68.3h-6c-0.1,0-0.2-0.1-0.3-0.2l-4.7-11.9l-4.7,11.9c0,0.1-0.2,0.2-0.3,0.2h-6c-0.1,0-0.2-0.1-0.3-0.2 l-6.6-16.8c0-0.1,0-0.2,0-0.3c0.1-0.1,0.1-0.1,0.2-0.1h4.7c0.1,0,0.2,0.1,0.3,0.2l4.7,12.5l5-12.5c0-0.1,0.2-0.2,0.3-0.2h5.3 c0.1,0,0.2,0.1,0.3,0.2l5,12.5l4.7-12.5c0-0.1,0.2-0.2,0.3-0.2h4.7c0.1,0,0.2,0,0.2,0.1c0.1,0.1,0.1,0.2,0,0.3l-6.6,16.8 C205.4,68.3,205.3,68.3,205.2,68.3z M199.4,67.7h5.6l6.4-16.2h-4l-4.9,13c0,0.1-0.2,0.2-0.3,0.2l0,0c-0.1,0-0.2-0.1-0.3-0.2 l-5.2-13h-4.9l-5.2,13c0,0.1-0.1,0.2-0.3,0.2c-0.1,0-0.2-0.1-0.3-0.2l-4.9-13h-4l6.4,16.2h5.5l4.9-12.5c0-0.1,0.2-0.2,0.3-0.2l0,0 c0.1,0,0.2,0.1,0.3,0.2L199.4,67.7z"></path> </g> <g> <path class="st1" d="M236.5,64.5h-10.1l-1.8,3.6h-4.8l8.7-16.8h5.8l8.7,16.8h-4.8L236.5,64.5z M234.9,61.2l-3.4-6.8l-3.4,6.8H234.9 z"></path> <path class="st1" d="M243.1,68.3h-4.8c-0.1,0-0.2-0.1-0.3-0.2l-1.7-3.4h-9.7l-1.7,3.4c-0.1,0.1-0.2,0.2-0.3,0.2h-4.8 c-0.1,0-0.2-0.1-0.3-0.1c-0.1-0.1-0.1-0.2,0-0.3l8.7-16.8c0.1-0.1,0.2-0.2,0.3-0.2h5.8c0.1,0,0.2,0.1,0.3,0.2l8.7,16.8 c0,0.1,0,0.2,0,0.3C243.3,68.3,243.2,68.3,243.1,68.3z M238.5,67.7h4.1l-8.4-16.2h-5.5l-8.4,16.2h4.1l1.7-3.4 c0.1-0.1,0.2-0.2,0.3-0.2h10.1c0.1,0,0.2,0.1,0.3,0.2L238.5,67.7z M234.9,61.5h-6.8c-0.1,0-0.2-0.1-0.3-0.1c-0.1-0.1-0.1-0.2,0-0.3 l3.4-6.8c0.1-0.1,0.2-0.2,0.3-0.2l0,0c0.1,0,0.2,0.1,0.3,0.2l3.4,6.8c0,0.1,0,0.2,0,0.3S235,61.5,234.9,61.5z M228.6,60.9h5.9 l-2.9-5.8L228.6,60.9z"></path> </g> <g> <path class="st1" d="M250.2,51.2h5.2l6.5,7.7l6.5-7.7h5.2l-9.5,11.3V68h-4.3v-5.5L250.2,51.2z"></path> <path class="st1" d="M264.1,68.3h-4.3c-0.2,0-0.3-0.1-0.3-0.3v-5.4L250,51.4c-0.1-0.1-0.1-0.2,0-0.3c0-0.1,0.2-0.2,0.3-0.2h5.2 c0.1,0,0.2,0,0.2,0.1l6.2,7.4l6.2-7.4c0.1-0.1,0.1-0.1,0.2-0.1h5.2c0.1,0,0.2,0.1,0.3,0.2c0,0.1,0,0.2,0,0.3l-9.4,11.2V68 C264.4,68.2,264.2,68.3,264.1,68.3z M260,67.7h3.7v-5.2c0-0.1,0-0.1,0.1-0.2l9.1-10.8h-4.4l-6.4,7.6c-0.1,0.1-0.1,0.1-0.2,0.1l0,0 c-0.1,0-0.2,0-0.2-0.1l-6.4-7.6h-4.4l9.1,10.8c0,0.1,0.1,0.1,0.1,0.2v5.2H260z"></path> </g> </svg> 